# xmcd CD database file
#
# Track frame offsets:
#	150
#	16177
#	38200
#	55770
#	73920
#	97090
#	117390
#	135072
#	154745
#	165142
#	184392
#
# Disc length: 2762 seconds
#
# Revision: 3
# Processed by: cddbd v1.5.1PL2 Copyright (c) Steve Scherf et al.
# Submitted via: jetAudio 5
#
DISCID=890ac80b
DTITLE=大塚愛 - LOVE PUNCH
DYEAR=2004
DGENRE=JPop
TTITLE0=pretty voice
TTITLE1=桃花花瓣
TTITLE2=櫻桃
TTITLE3=GIRLY
TTITLE4=雨中的旋律
TTITLE5=泡泡
TTITLE6=石川大阪友好條約
TTITLE7=單戀熱線
TTITLE8=Honey
TTITLE9=愛撒嬌
TTITLE10=Always Together
EXTD=YEAR: 2004
EXTT0=
EXTT1=
EXTT2=
EXTT3=
EXTT4=
EXTT5=
EXTT6=
EXTT7=
EXTT8=
EXTT9=
EXTT10=
PLAYORDER=
